<svg xmlns="http://www.w3.org/2000/svg" width="107" height="113" viewBox="0 0 107 113">
  <g id="Group_441" data-name="Group 441" transform="translate(-231 -825)">
    <g id="Group_436" data-name="Group 436">
      <rect id="Rectangle_132" data-name="Rectangle 132" width="107" height="107" rx="8" transform="translate(231 831)" fill="#4338ca"/>
      <rect id="Rectangle_133" data-name="Rectangle 133" width="107" height="107" rx="8" transform="translate(231 825)" fill="#a5b4fc"/>
    </g>
    <path id="Path_826" data-name="Path 826" d="M6.588,0A6.6,6.6,0,0,0,0,6.588V46.119a6.6,6.6,0,0,0,6.588,6.588H32.942a6.6,6.6,0,0,0,6.588-6.588V16.471H26.354a3.291,3.291,0,0,1-3.294-3.294V0ZM26.354,0V13.177H39.531ZM6.588,23.059H9.059a5.765,5.765,0,1,1,0,11.53H8.236v3.294a1.647,1.647,0,0,1-3.294,0V24.707A1.652,1.652,0,0,1,6.588,23.059Zm2.471,8.236a2.471,2.471,0,1,0,0-4.941H8.236v4.941Zm7.412-6.588a1.652,1.652,0,0,1,1.647-1.647h2.471A4.943,4.943,0,0,1,25.53,28v6.588a4.943,4.943,0,0,1-4.941,4.941H18.118a1.652,1.652,0,0,1-1.647-1.647Zm3.294,11.53h.824a1.652,1.652,0,0,0,1.647-1.647V28a1.652,1.652,0,0,0-1.647-1.647h-.824Zm9.883-13.177h4.941a1.647,1.647,0,1,1,0,3.294H31.295v3.294h3.294a1.647,1.647,0,1,1,0,3.294H31.295v4.941a1.647,1.647,0,0,1-3.294,0V24.707A1.652,1.652,0,0,1,29.648,23.059Z" transform="translate(265.235 851.646)" fill="#4338ca"/>
  </g>
</svg>
