<svg xmlns="http://www.w3.org/2000/svg" width="107" height="113" viewBox="0 0 107 113">
  <g id="Group_439" data-name="Group 439" transform="translate(-489 -1007)">
    <g id="Group_438" data-name="Group 438" transform="translate(125 105)">
      <rect id="Rectangle_134" data-name="Rectangle 134" width="107" height="107" rx="8" transform="translate(364 908)" fill="#991b1b"/>
      <path id="Path_825" data-name="Path 825" d="M8,0H99a8,8,0,0,1,8,8V99a8,8,0,0,1-8,8H8a8,8,0,0,1-8-8V8A8,8,0,0,1,8,0Z" transform="translate(364 902)" fill="#fca5a5"/>
    </g>
    <path id="Path_827" data-name="Path 827" d="M25.37,18.389v8.968M3.121,35.431A5.379,5.379,0,0,0,7.78,43.5h35.18a5.381,5.381,0,0,0,4.659-8.069L30.031,4.943a5.383,5.383,0,0,0-9.322,0L3.121,35.431Zm22.249-.9h.017v.019H25.37Z" transform="translate(517.131 1040.624)" fill="none" stroke="#991b1b" stroke-linecap="round" stroke-linejoin="round" stroke-width="3"/>
  </g>
</svg>
