<svg xmlns="http://www.w3.org/2000/svg" width="107" height="113" viewBox="0 0 107 113">
  <g id="Group_440" data-name="Group 440" transform="translate(-285 -985)">
    <g id="Group_437" data-name="Group 437" transform="translate(70 -5)">
      <rect id="Rectangle_136" data-name="Rectangle 136" width="107" height="107" rx="8" transform="translate(215 996)" fill="#0284c7"/>
      <rect id="Rectangle_137" data-name="Rectangle 137" width="107" height="107" rx="8" transform="translate(215 990)" fill="#bae6fd"/>
    </g>
    <path id="Path_828" data-name="Path 828" d="M5.037,41.664H47.776m-42.739,0A2.787,2.787,0,0,1,2.25,38.877m2.787,2.787H23.619a2.788,2.788,0,0,0,2.787-2.787m-24.157,0V7.287m0,31.59V35.161a2.788,2.788,0,0,1,2.787-2.787m45.526,6.5V7.287m0,31.59a2.788,2.788,0,0,1-2.787,2.787m2.787-2.787V35.161a2.788,2.788,0,0,0-2.787-2.787m0,9.291H29.194a2.787,2.787,0,0,1-2.787-2.787M50.564,7.287A2.788,2.788,0,0,0,47.776,4.5H5.037A2.788,2.788,0,0,0,2.25,7.287m48.314,0V11a2.788,2.788,0,0,1-2.787,2.787M2.25,7.287V11a2.788,2.788,0,0,0,2.787,2.787m0,0H47.776m-42.739,0H23.619a2.788,2.788,0,0,1,2.787,2.787M5.037,13.791A2.788,2.788,0,0,0,2.25,16.578v3.716a2.788,2.788,0,0,0,2.787,2.787m42.739-9.291H29.194a2.788,2.788,0,0,0-2.787,2.787m21.369-2.787a2.788,2.788,0,0,1,2.787,2.787v3.716a2.788,2.788,0,0,1-2.787,2.787m-42.739,0H23.619m-18.582,0A2.788,2.788,0,0,0,2.25,25.869v3.716a2.788,2.788,0,0,0,2.787,2.787M26.407,20.295V16.578m0,3.716a2.788,2.788,0,0,1-2.787,2.787m2.787-2.787a2.788,2.788,0,0,0,2.787,2.787m-5.575,0a2.788,2.788,0,0,1,2.787,2.787m2.787-2.787H47.776m-18.582,0a2.788,2.788,0,0,0-2.787,2.787m21.369-2.787a2.788,2.788,0,0,1,2.787,2.787v3.716a2.788,2.788,0,0,1-2.787,2.787m-42.739,0H23.619m2.787-2.787V25.869m0,3.716a2.788,2.788,0,0,1-2.787,2.787m2.787-2.787a2.788,2.788,0,0,0,2.787,2.787m-5.575,0a2.788,2.788,0,0,1,2.787,2.787m0,3.716V35.161m0,0a2.788,2.788,0,0,1,2.787-2.787m0,0H47.776" transform="translate(312.093 1018.418)" fill="none" stroke="#0284c7" stroke-linecap="round" stroke-linejoin="round" stroke-width="3"/>
  </g>
</svg>
